# xmcd
#
# Track frame offsets:
#	150
#	16983
#	33880
#	51916
#	64865
#	79170
#	99706
#	115802
#	135633
#	154297
#	170930
#	190278
#	208234
#	227981
#	244508
#	261108
#	277929
#
# Disc length: 3938 seconds
#
# Revision: 3
# Processed by: cddbd v1.5.2PL0 Copyright (c) Steve Scherf et al.
# Submitted via: EasyCDDAExtractor 12.0.1.1
#
DISCID=f40f6011
DTITLE=Luis Fonsi - Exitos 98 - 06 (Deluxe Edition)
DYEAR=2006
DGENRE=Latin
TTITLE0=Tu Amor
TTITLE1=No Lo Digas Mas
TTITLE2=Nada Es Para Siempre
TTITLE3=Por Una Mujer
TTITLE4=Me Matas
TTITLE5=Quien Te Dijo Eso
TTITLE6=Abrazar La Vida
TTITLE7=Quisiera Poder Olvidarme De Ti
TTITLE8=Imaginame Sin Ti
TTITLE9=No Te Cambio Por Ninguna
TTITLE10=Mi Sueño
TTITLE11=Perdoname
TTITLE12=Si Tu Quisieras
TTITLE13=Vives En Mi
TTITLE14=Tu Amor (Acoustic Version)
TTITLE15=No Lo Digas Mas (Acoustic Version)
TTITLE16=Paso A Paso (Alternate Version)
EXTD=
EXTT0=
EXTT1=
EXTT2=
EXTT3=
EXTT4=
EXTT5=
EXTT6=
EXTT7=
EXTT8=
EXTT9=
EXTT10=
EXTT11=
EXTT12=
EXTT13=
EXTT14=
EXTT15=
EXTT16=
PLAYORDER=
